<svg width="19" height="19" viewBox="0 0 19 19" fill="none" xmlns="http://www.w3.org/2000/svg">
<path d="M9.50004 18.0104C4.80546 18.0104 0.989624 14.1946 0.989624 9.50002C0.989624 4.80544 4.80546 0.989603 9.50004 0.989603C14.1946 0.989603 18.0105 4.80544 18.0105 9.50002C18.0105 14.1946 14.1946 18.0104 9.50004 18.0104ZM9.50004 2.1771C5.46254 2.1771 2.17712 5.46252 2.17712 9.50002C2.17712 13.5375 5.46254 16.8229 9.50004 16.8229C13.5375 16.8229 16.823 13.5375 16.823 9.50002C16.823 5.46252 13.5375 2.1771 9.50004 2.1771Z" fill="#292D32"/>
<path d="M12.6667 10.0938H6.33337C6.00879 10.0938 5.73962 9.82458 5.73962 9.5C5.73962 9.17542 6.00879 8.90625 6.33337 8.90625H12.6667C12.9913 8.90625 13.2605 9.17542 13.2605 9.5C13.2605 9.82458 12.9913 10.0938 12.6667 10.0938Z" fill="#292D32"/>
<path d="M9.5 13.2604C9.17542 13.2604 8.90625 12.9913 8.90625 12.6667V6.33335C8.90625 6.00877 9.17542 5.7396 9.5 5.7396C9.82458 5.7396 10.0938 6.00877 10.0938 6.33335V12.6667C10.0938 12.9913 9.82458 13.2604 9.5 13.2604Z" fill="#292D32"/>
</svg>
