<svg width="19" height="19" viewBox="0 0 19 19" fill="none" xmlns="http://www.w3.org/2000/svg">
<path d="M9.43666 18.0104C4.75 18.0104 0.926247 14.1946 0.926247 9.5C0.926247 4.80542 4.75 0.989584 9.43666 0.989584C14.1233 0.989584 17.9471 4.80542 17.9471 9.5C17.9471 14.1946 14.1312 18.0104 9.43666 18.0104ZM9.43666 2.17708C5.39916 2.17708 2.11375 5.4625 2.11375 9.5C2.11375 13.5375 5.39916 16.8229 9.43666 16.8229C13.4742 16.8229 16.7596 13.5375 16.7596 9.5C16.7596 5.4625 13.4742 2.17708 9.43666 2.17708Z" fill="#292D32"/>
<path d="M12.6033 10.0938H6.27C5.94541 10.0938 5.67625 9.82458 5.67625 9.5C5.67625 9.17542 5.94541 8.90625 6.27 8.90625H12.6033C12.9279 8.90625 13.1971 9.17542 13.1971 9.5C13.1971 9.82458 12.9358 10.0938 12.6033 10.0938Z" fill="#292D32"/>
</svg>
