<svg width="100" height="100" viewBox="0 0 100 100" fill="none" xmlns="http://www.w3.org/2000/svg">
<path d="M22.9165 81.25C22.9165 81.25 37.4998 75 41.6665 70.8333C45.8332 66.6667 33.3332 66.6667 33.3332 45.8333C33.3332 25 49.9998 25 49.9998 25C49.9998 25 66.6665 25 66.6665 45.8333C66.6665 66.6667 54.1665 66.6667 58.3332 70.8333C62.4998 75 77.0832 81.25 77.0832 81.25" stroke="#DD9A39" stroke-width="1.5" stroke-linecap="round"/>
<path fill-rule="evenodd" clip-rule="evenodd" d="M50.0002 91.6668C73.012 91.6668 91.6668 73.012 91.6668 50.0002C91.6668 26.9883 73.012 8.3335 50.0002 8.3335C26.9883 8.3335 8.3335 26.9883 8.3335 50.0002C8.3335 73.012 26.9883 91.6668 50.0002 91.6668Z" stroke="#DD9A39" stroke-width="1.5"/>
</svg>
