<svg width="25" height="25" viewBox="0 0 25 25" fill="none" xmlns="http://www.w3.org/2000/svg">
<path d="M5.729 20.3125C5.729 20.3125 9.37484 18.75 10.4165 17.7083C11.4582 16.6667 8.33317 16.6667 8.33317 11.4583C8.33317 6.25 12.4998 6.25 12.4998 6.25C12.4998 6.25 16.6665 6.25 16.6665 11.4583C16.6665 16.6667 13.5415 16.6667 14.5832 17.7083C15.6248 18.75 19.2707 20.3125 19.2707 20.3125" stroke="#DD9A39" stroke-width="1.5" stroke-linecap="round"/>
<path fill-rule="evenodd" clip-rule="evenodd" d="M12.5002 22.9167C18.2531 22.9167 22.9168 18.253 22.9168 12.5C22.9168 6.74704 18.2531 2.08334 12.5002 2.08334C6.7472 2.08334 2.0835 6.74704 2.0835 12.5C2.0835 18.253 6.7472 22.9167 12.5002 22.9167Z" stroke="#DD9A39" stroke-width="1.5"/>
</svg>
